<mxfile host="65bd71144e">
    <diagram id="6_agdwOGijRrAajkuO3a" name="Page-1">
        <mxGraphModel dx="2322" dy="170" grid="1" gridSize="10" guides="1" tooltips="1" connect="1" arrows="1" fold="1" page="1" pageScale="1" pageWidth="850" pageHeight="1100" math="0" shadow="0">
            <root>
                <mxCell id="0"/>
                <mxCell id="1" parent="0"/>
                <mxCell id="2" value="GradeBook" style="swimlane;fontStyle=1;align=center;verticalAlign=top;childLayout=stackLayout;horizontal=1;startSize=26;horizontalStack=0;resizeParent=1;resizeParentMax=0;resizeLast=0;collapsible=1;marginBottom=0;fillColor=#E6E6E6;" parent="1" vertex="1">
                    <mxGeometry x="241" y="440" width="470" height="340" as="geometry"/>
                </mxCell>
                <mxCell id="3" value="-student:list[Student]=[]&#10;-grading_policy:Grading_Policy" style="text;strokeColor=none;fillColor=none;align=left;verticalAlign=top;spacingLeft=4;spacingRight=4;overflow=hidden;rotatable=0;points=[[0,0.5],[1,0.5]];portConstraint=eastwest;" parent="2" vertex="1">
                    <mxGeometry y="26" width="470" height="44" as="geometry"/>
                </mxCell>
                <mxCell id="4" value="" style="line;strokeWidth=1;fillColor=none;align=left;verticalAlign=middle;spacingTop=-1;spacingLeft=3;spacingRight=3;rotatable=0;labelPosition=right;points=[];portConstraint=eastwest;strokeColor=inherit;" parent="2" vertex="1">
                    <mxGeometry y="70" width="470" height="8" as="geometry"/>
                </mxCell>
                <mxCell id="5" value="+__init__(self):None&#10;+setup_new_semester(self,num_assignemnts:int,num_tests:int,num_final:int,&#10;assign_weight:float,test_weight:float,final_weight:float):bool&#10;+add_student(self,stuid:int, first_name:str,last_name:str):bool&#10;+record_assignment_score(self,ass_num:int,score:float):None&#10;+record_test_score(self,test_num:int,score:float):None&#10;+record_final_exam_score(self,scores:float):None&#10;+change_student_grade(self,stuid:str,grade_type:str,identifier:int,new_score:str):tuple&#10;+calculate_final_grade(self):None&#10;+ __iter__(self) &#10;+ __next__(self)&#10;+order_students_by_id(self):list[Student]&#10;+order_students_by_name(self):list[Student]&#10;+get_policy_from_db(self):None&#10;+get_students_from_studentsdb(self):None&#10;+save_students_to_studentdb(self):None&#10;+save_policy_to_policydb(self):None" style="text;strokeColor=none;fillColor=none;align=left;verticalAlign=top;spacingLeft=4;spacingRight=4;overflow=hidden;rotatable=0;points=[[0,0.5],[1,0.5]];portConstraint=eastwest;" parent="2" vertex="1">
                    <mxGeometry y="78" width="470" height="262" as="geometry"/>
                </mxCell>
                <mxCell id="6" value="GradingPolicy" style="swimlane;fontStyle=1;align=center;verticalAlign=top;childLayout=stackLayout;horizontal=1;startSize=26;horizontalStack=0;resizeParent=1;resizeParentMax=0;resizeLast=0;collapsible=1;marginBottom=0;fillColor=#E6E6E6;" parent="1" vertex="1">
                    <mxGeometry x="860" y="587" width="480" height="238" as="geometry"/>
                </mxCell>
                <mxCell id="7" value="-num_assignments:int&#10;-num_tests:int&#10;-num_finals:int&#10;-weight:dict[str,float]" style="text;strokeColor=none;fillColor=none;align=left;verticalAlign=top;spacingLeft=4;spacingRight=4;overflow=hidden;rotatable=0;points=[[0,0.5],[1,0.5]];portConstraint=eastwest;" parent="6" vertex="1">
                    <mxGeometry y="26" width="480" height="84" as="geometry"/>
                </mxCell>
                <mxCell id="8" value="" style="line;strokeWidth=1;fillColor=none;align=left;verticalAlign=middle;spacingTop=-1;spacingLeft=3;spacingRight=3;rotatable=0;labelPosition=right;points=[];portConstraint=eastwest;strokeColor=inherit;" parent="6" vertex="1">
                    <mxGeometry y="110" width="480" height="8" as="geometry"/>
                </mxCell>
                <mxCell id="9" value="+__init__(self,num_assignemnt=0,num_tests=0,num_finals=0,weight):None&#10;+setup_grading_policy(self,num_assignments:int,num_tests:int,num_finals:int, &#10;+assignment_weight:float, test_weight:float,final_weight:float):None&#10;+ get_weight(self,component:str):float&#10;+ check_weight(self):bool&#10;+ __str__(self):str&#10;+__repr__(self):str" style="text;strokeColor=none;fillColor=none;align=left;verticalAlign=top;spacingLeft=4;spacingRight=4;overflow=hidden;rotatable=0;points=[[0,0.5],[1,0.5]];portConstraint=eastwest;" parent="6" vertex="1">
                    <mxGeometry y="118" width="480" height="120" as="geometry"/>
                </mxCell>
                <mxCell id="10" value="Student" style="swimlane;fontStyle=1;align=center;verticalAlign=top;childLayout=stackLayout;horizontal=1;startSize=26;horizontalStack=0;resizeParent=1;resizeParentMax=0;resizeLast=0;collapsible=1;marginBottom=0;fillColor=#E6E6E6;" parent="1" vertex="1">
                    <mxGeometry x="-355" y="409" width="430" height="420" as="geometry"/>
                </mxCell>
                <mxCell id="11" value="-stuid:str&#10;-first_name:str&#10;-last_name:str&#10;-final_score =float&#10;-assignments:list[Assignment]=[]&#10;-tests:list[Test]=[]&#10;-final_exams:list[FinalExam]=[]" style="text;strokeColor=none;fillColor=none;align=left;verticalAlign=top;spacingLeft=4;spacingRight=4;overflow=hidden;rotatable=0;points=[[0,0.5],[1,0.5]];portConstraint=eastwest;" parent="10" vertex="1">
                    <mxGeometry y="26" width="430" height="114" as="geometry"/>
                </mxCell>
                <mxCell id="12" value="" style="line;strokeWidth=1;fillColor=none;align=left;verticalAlign=middle;spacingTop=-1;spacingLeft=3;spacingRight=3;rotatable=0;labelPosition=right;points=[];portConstraint=eastwest;strokeColor=inherit;" parent="10" vertex="1">
                    <mxGeometry y="140" width="430" height="8" as="geometry"/>
                </mxCell>
                <mxCell id="13" value="+ __init__(self,stuid:int,firstname:str,lastname:str):None&#10;+ get_num_assignments(self):int&#10;+ get_num_tests(self):int&#10;+ add_assignment_score(self,assignment_num:int,score:float):None&#10;+add_test_score(self,test_num:int,score:float):None&#10;+ add_test(self,test:Test):None&#10;+add_final(self,finals:FinalExam):None&#10;+add_final_exam_score(self,score):None&#10;+__iter__(self)&#10;+__next__(self)&#10;+add_grade(self,grade_type:str, score:float):None&#10;+ average(self,scores:float):float&#10;+ average_assignement(self):float&#10;+ average_test_scores(self):float&#10;+final_exam_score(self):float&#10;+calculate_final_score(self,policy:GradingPolicy):float&#10;+__str__(self):str&#10;+__repr__(self):str&#10;" style="text;strokeColor=none;fillColor=none;align=left;verticalAlign=top;spacingLeft=4;spacingRight=4;overflow=hidden;rotatable=0;points=[[0,0.5],[1,0.5]];portConstraint=eastwest;" parent="10" vertex="1">
                    <mxGeometry y="148" width="430" height="272" as="geometry"/>
                </mxCell>
                <mxCell id="14" value="GradeItem(ABC)" style="swimlane;fontStyle=1;align=center;verticalAlign=top;childLayout=stackLayout;horizontal=1;startSize=26;horizontalStack=0;resizeParent=1;resizeParentMax=0;resizeLast=0;collapsible=1;marginBottom=0;fillColor=#CCCCCC;" parent="1" vertex="1">
                    <mxGeometry x="-762" y="290" width="220" height="140" as="geometry"/>
                </mxCell>
                <mxCell id="15" value="-score:float" style="text;strokeColor=none;fillColor=none;align=left;verticalAlign=top;spacingLeft=4;spacingRight=4;overflow=hidden;rotatable=0;points=[[0,0.5],[1,0.5]];portConstraint=eastwest;" parent="14" vertex="1">
                    <mxGeometry y="26" width="220" height="26" as="geometry"/>
                </mxCell>
                <mxCell id="16" value="" style="line;strokeWidth=1;fillColor=none;align=left;verticalAlign=middle;spacingTop=-1;spacingLeft=3;spacingRight=3;rotatable=0;labelPosition=right;points=[];portConstraint=eastwest;strokeColor=inherit;" parent="14" vertex="1">
                    <mxGeometry y="52" width="220" height="8" as="geometry"/>
                </mxCell>
                <mxCell id="17" value="+__init__(self,score:float):None&#10;+grade_type(self):str=0&#10;+__str__(self):str&#10;+__repr__(self):str" style="text;strokeColor=none;fillColor=none;align=left;verticalAlign=top;spacingLeft=4;spacingRight=4;overflow=hidden;rotatable=0;points=[[0,0.5],[1,0.5]];portConstraint=eastwest;" parent="14" vertex="1">
                    <mxGeometry y="60" width="220" height="80" as="geometry"/>
                </mxCell>
                <mxCell id="18" value="Assignment" style="swimlane;fontStyle=1;align=center;verticalAlign=top;childLayout=stackLayout;horizontal=1;startSize=26;horizontalStack=0;resizeParent=1;resizeParentMax=0;resizeLast=0;collapsible=1;marginBottom=0;fillColor=#CCCCCC;" parent="1" vertex="1">
                    <mxGeometry x="-1015" y="480" width="160" height="60" as="geometry"/>
                </mxCell>
                <mxCell id="20" value="" style="line;strokeWidth=1;fillColor=none;align=left;verticalAlign=middle;spacingTop=-1;spacingLeft=3;spacingRight=3;rotatable=0;labelPosition=right;points=[];portConstraint=eastwest;strokeColor=inherit;" parent="18" vertex="1">
                    <mxGeometry y="26" width="160" height="8" as="geometry"/>
                </mxCell>
                <mxCell id="21" value="+grade_type(self):str" style="text;strokeColor=none;fillColor=none;align=left;verticalAlign=top;spacingLeft=4;spacingRight=4;overflow=hidden;rotatable=0;points=[[0,0.5],[1,0.5]];portConstraint=eastwest;" parent="18" vertex="1">
                    <mxGeometry y="34" width="160" height="26" as="geometry"/>
                </mxCell>
                <mxCell id="22" value="Test" style="swimlane;fontStyle=1;align=center;verticalAlign=top;childLayout=stackLayout;horizontal=1;startSize=20;horizontalStack=0;resizeParent=1;resizeParentMax=0;resizeLast=0;collapsible=1;marginBottom=0;fillColor=#CCCCCC;" parent="1" vertex="1">
                    <mxGeometry x="-804" y="480" width="160" height="54" as="geometry"/>
                </mxCell>
                <mxCell id="24" value="" style="line;strokeWidth=1;fillColor=none;align=left;verticalAlign=middle;spacingTop=-1;spacingLeft=3;spacingRight=3;rotatable=0;labelPosition=right;points=[];portConstraint=eastwest;strokeColor=inherit;" parent="22" vertex="1">
                    <mxGeometry y="20" width="160" height="8" as="geometry"/>
                </mxCell>
                <mxCell id="25" value="+ grade_type(self):str" style="text;strokeColor=none;fillColor=none;align=left;verticalAlign=top;spacingLeft=4;spacingRight=4;overflow=hidden;rotatable=0;points=[[0,0.5],[1,0.5]];portConstraint=eastwest;" parent="22" vertex="1">
                    <mxGeometry y="28" width="160" height="26" as="geometry"/>
                </mxCell>
                <mxCell id="26" value="FinalExam" style="swimlane;fontStyle=1;align=center;verticalAlign=top;childLayout=stackLayout;horizontal=1;startSize=26;horizontalStack=0;resizeParent=1;resizeParentMax=0;resizeLast=0;collapsible=1;marginBottom=0;fillColor=#CCCCCC;" parent="1" vertex="1">
                    <mxGeometry x="-594" y="480" width="160" height="60" as="geometry"/>
                </mxCell>
                <mxCell id="28" value="" style="line;strokeWidth=1;fillColor=none;align=left;verticalAlign=middle;spacingTop=-1;spacingLeft=3;spacingRight=3;rotatable=0;labelPosition=right;points=[];portConstraint=eastwest;strokeColor=inherit;" parent="26" vertex="1">
                    <mxGeometry y="26" width="160" height="8" as="geometry"/>
                </mxCell>
                <mxCell id="29" value="+grade_type(self):str" style="text;strokeColor=none;fillColor=none;align=left;verticalAlign=top;spacingLeft=4;spacingRight=4;overflow=hidden;rotatable=0;points=[[0,0.5],[1,0.5]];portConstraint=eastwest;" parent="26" vertex="1">
                    <mxGeometry y="34" width="160" height="26" as="geometry"/>
                </mxCell>
                <mxCell id="30" value="GradeBookApp" style="swimlane;fontStyle=1;align=center;verticalAlign=top;childLayout=stackLayout;horizontal=1;startSize=26;horizontalStack=0;resizeParent=1;resizeParentMax=0;resizeLast=0;collapsible=1;marginBottom=0;fillColor=#B3B3B3;" parent="1" vertex="1">
                    <mxGeometry x="880" y="420" width="210" height="138" as="geometry"/>
                </mxCell>
                <mxCell id="31" value="-gradebook:GradeBook&#10;+setup_completed:bool" style="text;strokeColor=none;fillColor=none;align=left;verticalAlign=top;spacingLeft=4;spacingRight=4;overflow=hidden;rotatable=0;points=[[0,0.5],[1,0.5]];portConstraint=eastwest;" parent="30" vertex="1">
                    <mxGeometry y="26" width="210" height="44" as="geometry"/>
                </mxCell>
                <mxCell id="32" value="" style="line;strokeWidth=1;fillColor=none;align=left;verticalAlign=middle;spacingTop=-1;spacingLeft=3;spacingRight=3;rotatable=0;labelPosition=right;points=[];portConstraint=eastwest;strokeColor=inherit;" parent="30" vertex="1">
                    <mxGeometry y="70" width="210" height="8" as="geometry"/>
                </mxCell>
                <mxCell id="33" value="+ __init__(self):None&#10;+ show_menu(self):None&#10;+process_command(self):bool" style="text;strokeColor=none;fillColor=none;align=left;verticalAlign=top;spacingLeft=4;spacingRight=4;overflow=hidden;rotatable=0;points=[[0,0.5],[1,0.5]];portConstraint=eastwest;" parent="30" vertex="1">
                    <mxGeometry y="78" width="210" height="60" as="geometry"/>
                </mxCell>
                <mxCell id="34" value="StudentRepo" style="swimlane;fontStyle=1;align=center;verticalAlign=top;childLayout=stackLayout;horizontal=1;startSize=26;horizontalStack=0;resizeParent=1;resizeParentMax=0;resizeLast=0;collapsible=1;marginBottom=0;fillColor=#CCCCCC;" parent="1" vertex="1">
                    <mxGeometry x="-775" y="610" width="310" height="140" as="geometry"/>
                </mxCell>
                <mxCell id="35" value="-filename:str" style="text;strokeColor=none;fillColor=none;align=left;verticalAlign=top;spacingLeft=4;spacingRight=4;overflow=hidden;rotatable=0;points=[[0,0.5],[1,0.5]];portConstraint=eastwest;" parent="34" vertex="1">
                    <mxGeometry y="26" width="310" height="26" as="geometry"/>
                </mxCell>
                <mxCell id="36" value="" style="line;strokeWidth=1;fillColor=none;align=left;verticalAlign=middle;spacingTop=-1;spacingLeft=3;spacingRight=3;rotatable=0;labelPosition=right;points=[];portConstraint=eastwest;strokeColor=inherit;" parent="34" vertex="1">
                    <mxGeometry y="52" width="310" height="8" as="geometry"/>
                </mxCell>
                <mxCell id="37" value="+__init__(self,filename:str):None&#10;+save_students_to_file(self,students:list[Student]):None&#10;+student_to_dict(self,student:Student):None&#10;+read_students_from_file(self):list[Student]" style="text;strokeColor=none;fillColor=none;align=left;verticalAlign=top;spacingLeft=4;spacingRight=4;overflow=hidden;rotatable=0;points=[[0,0.5],[1,0.5]];portConstraint=eastwest;" parent="34" vertex="1">
                    <mxGeometry y="60" width="310" height="80" as="geometry"/>
                </mxCell>
                <mxCell id="38" value="PolicyRepo" style="swimlane;fontStyle=1;align=center;verticalAlign=top;childLayout=stackLayout;horizontal=1;startSize=26;horizontalStack=0;resizeParent=1;resizeParentMax=0;resizeLast=0;collapsible=1;marginBottom=0;fillColor=#B3B3B3;" parent="1" vertex="1">
                    <mxGeometry x="480" y="850" width="320" height="136" as="geometry"/>
                </mxCell>
                <mxCell id="39" value="-filename:str" style="text;strokeColor=none;fillColor=none;align=left;verticalAlign=top;spacingLeft=4;spacingRight=4;overflow=hidden;rotatable=0;points=[[0,0.5],[1,0.5]];portConstraint=eastwest;" parent="38" vertex="1">
                    <mxGeometry y="26" width="320" height="22" as="geometry"/>
                </mxCell>
                <mxCell id="40" value="" style="line;strokeWidth=1;fillColor=none;align=left;verticalAlign=middle;spacingTop=-1;spacingLeft=3;spacingRight=3;rotatable=0;labelPosition=right;points=[];portConstraint=eastwest;strokeColor=inherit;" parent="38" vertex="1">
                    <mxGeometry y="48" width="320" height="8" as="geometry"/>
                </mxCell>
                <mxCell id="41" value="+__init__(self,filename:str):None&#10;+ save_policy_to_file(self,policy:GradingPolicy):None&#10;+read_policy_from_file(self):GradingPolicy" style="text;strokeColor=none;fillColor=none;align=left;verticalAlign=top;spacingLeft=4;spacingRight=4;overflow=hidden;rotatable=0;points=[[0,0.5],[1,0.5]];portConstraint=eastwest;" parent="38" vertex="1">
                    <mxGeometry y="56" width="320" height="80" as="geometry"/>
                </mxCell>
                <mxCell id="42" value="" style="endArrow=block;endSize=16;endFill=0;html=1;exitX=0.5;exitY=0;exitDx=0;exitDy=0;entryX=-0.048;entryY=0.757;entryDx=0;entryDy=0;entryPerimeter=0;" parent="1" source="18" target="17" edge="1">
                    <mxGeometry width="160" relative="1" as="geometry">
                        <mxPoint x="-945" y="440" as="sourcePoint"/>
                        <mxPoint x="-785" y="440" as="targetPoint"/>
                    </mxGeometry>
                </mxCell>
                <mxCell id="43" value="" style="endArrow=block;endSize=16;endFill=0;html=1;exitX=0.5;exitY=0;exitDx=0;exitDy=0;entryX=0.415;entryY=1.021;entryDx=0;entryDy=0;entryPerimeter=0;" parent="1" source="22" target="17" edge="1">
                    <mxGeometry width="160" relative="1" as="geometry">
                        <mxPoint x="-925" y="490" as="sourcePoint"/>
                        <mxPoint x="-814.56" y="420.56000000000006" as="targetPoint"/>
                    </mxGeometry>
                </mxCell>
                <mxCell id="44" value="" style="endArrow=block;endSize=16;endFill=0;html=1;entryX=0.914;entryY=1.021;entryDx=0;entryDy=0;entryPerimeter=0;" parent="1" target="17" edge="1">
                    <mxGeometry width="160" relative="1" as="geometry">
                        <mxPoint x="-525" y="480" as="sourcePoint"/>
                        <mxPoint x="-804.56" y="430.56000000000006" as="targetPoint"/>
                    </mxGeometry>
                </mxCell>
                <mxCell id="45" value="" style="endArrow=open;endSize=12;dashed=1;html=1;exitX=1.014;exitY=0.262;exitDx=0;exitDy=0;exitPerimeter=0;entryX=-0.007;entryY=0.404;entryDx=0;entryDy=0;entryPerimeter=0;" parent="1" source="37" target="13" edge="1">
                    <mxGeometry width="160" relative="1" as="geometry">
                        <mxPoint x="-545" y="720" as="sourcePoint"/>
                        <mxPoint x="-385" y="720" as="targetPoint"/>
                    </mxGeometry>
                </mxCell>
                <mxCell id="46" value="" style="endArrow=open;endSize=12;dashed=1;html=1;entryX=-0.007;entryY=0.404;entryDx=0;entryDy=0;entryPerimeter=0;" parent="1" edge="1">
                    <mxGeometry width="160" relative="1" as="geometry">
                        <mxPoint x="800" y="900" as="sourcePoint"/>
                        <mxPoint x="862.9400000000003" y="803.5479999999999" as="targetPoint"/>
                    </mxGeometry>
                </mxCell>
                <mxCell id="47" value="1" style="endArrow=open;html=1;endSize=12;startArrow=diamondThin;startSize=14;startFill=1;edgeStyle=orthogonalEdgeStyle;align=left;verticalAlign=bottom;entryX=1.003;entryY=0.025;entryDx=0;entryDy=0;entryPerimeter=0;exitX=-0.009;exitY=0.386;exitDx=0;exitDy=0;exitPerimeter=0;" parent="1" source="33" target="5" edge="1">
                    <mxGeometry x="-0.7868" y="-11" relative="1" as="geometry">
                        <mxPoint x="870" y="490" as="sourcePoint"/>
                        <mxPoint x="850" y="390" as="targetPoint"/>
                        <mxPoint as="offset"/>
                    </mxGeometry>
                </mxCell>
                <mxCell id="48" value="1" style="text;html=1;align=center;verticalAlign=middle;resizable=0;points=[];autosize=1;strokeColor=none;fillColor=none;" parent="1" vertex="1">
                    <mxGeometry x="720" y="495" width="30" height="30" as="geometry"/>
                </mxCell>
                <mxCell id="50" value="1" style="endArrow=open;html=1;endSize=12;startArrow=diamondThin;startSize=14;startFill=1;edgeStyle=orthogonalEdgeStyle;align=left;verticalAlign=bottom;entryX=1.015;entryY=1.011;entryDx=0;entryDy=0;entryPerimeter=0;exitX=-0.005;exitY=0.122;exitDx=0;exitDy=0;exitPerimeter=0;" parent="1" source="5" target="11" edge="1">
                    <mxGeometry x="-0.8485" y="-9" relative="1" as="geometry">
                        <mxPoint x="250" y="550" as="sourcePoint"/>
                        <mxPoint x="380" y="400" as="targetPoint"/>
                        <Array as="points">
                            <mxPoint x="220" y="550"/>
                            <mxPoint x="220" y="549"/>
                            <mxPoint x="240" y="549"/>
                            <mxPoint x="240" y="550"/>
                        </Array>
                        <mxPoint as="offset"/>
                    </mxGeometry>
                </mxCell>
                <mxCell id="51" value="1..*" style="text;html=1;align=center;verticalAlign=middle;resizable=0;points=[];autosize=1;strokeColor=none;fillColor=none;" parent="1" vertex="1">
                    <mxGeometry x="80" y="520" width="40" height="30" as="geometry"/>
                </mxCell>
                <mxCell id="52" value="1" style="endArrow=open;html=1;endSize=12;startArrow=diamondThin;startSize=14;startFill=1;edgeStyle=orthogonalEdgeStyle;align=left;verticalAlign=bottom;entryX=-0.004;entryY=0.074;entryDx=0;entryDy=0;entryPerimeter=0;" parent="1" target="9" edge="1">
                    <mxGeometry x="-1" y="3" relative="1" as="geometry">
                        <mxPoint x="710" y="714" as="sourcePoint"/>
                        <mxPoint x="760" y="600" as="targetPoint"/>
                    </mxGeometry>
                </mxCell>
                <mxCell id="53" value="1" style="text;html=1;align=center;verticalAlign=middle;resizable=0;points=[];autosize=1;strokeColor=none;fillColor=none;" parent="1" vertex="1">
                    <mxGeometry x="830" y="690" width="30" height="30" as="geometry"/>
                </mxCell>
                <mxCell id="54" value="" style="endArrow=open;html=1;endSize=12;startArrow=diamondThin;startSize=14;startFill=0;edgeStyle=orthogonalEdgeStyle;align=left;verticalAlign=bottom;entryX=1;entryY=0.5;entryDx=0;entryDy=0;exitX=-0.003;exitY=0.688;exitDx=0;exitDy=0;exitPerimeter=0;" parent="1" target="26" edge="1" source="11">
                    <mxGeometry x="-1" y="3" relative="1" as="geometry">
                        <mxPoint x="-365" y="516" as="sourcePoint"/>
                        <mxPoint x="-325" y="360" as="targetPoint"/>
                    </mxGeometry>
                </mxCell>
                <mxCell id="55" value="0..1" style="text;html=1;align=center;verticalAlign=middle;resizable=0;points=[];autosize=1;strokeColor=none;fillColor=none;" parent="1" vertex="1">
                    <mxGeometry x="-435" y="480" width="40" height="30" as="geometry"/>
                </mxCell>
                <mxCell id="56" value="" style="endArrow=open;html=1;endSize=12;startArrow=diamondThin;startSize=14;startFill=0;edgeStyle=orthogonalEdgeStyle;align=left;verticalAlign=bottom;exitX=-0.003;exitY=0.02;exitDx=0;exitDy=0;exitPerimeter=0;" parent="1" source="13" edge="1">
                    <mxGeometry x="-1" y="3" relative="1" as="geometry">
                        <mxPoint x="-360" y="560" as="sourcePoint"/>
                        <mxPoint x="-685" y="540" as="targetPoint"/>
                    </mxGeometry>
                </mxCell>
                <mxCell id="57" value="0..4" style="text;html=1;align=center;verticalAlign=middle;resizable=0;points=[];autosize=1;strokeColor=none;fillColor=none;" parent="1" vertex="1">
                    <mxGeometry x="-685" y="535" width="40" height="30" as="geometry"/>
                </mxCell>
                <mxCell id="58" value="" style="endArrow=open;html=1;endSize=12;startArrow=diamondThin;startSize=14;startFill=0;edgeStyle=orthogonalEdgeStyle;align=left;verticalAlign=bottom;" parent="1" edge="1">
                    <mxGeometry x="-0.9325" y="-8" relative="1" as="geometry">
                        <mxPoint x="-360" y="588" as="sourcePoint"/>
                        <mxPoint x="-905" y="540" as="targetPoint"/>
                        <Array as="points">
                            <mxPoint x="-905" y="588"/>
                        </Array>
                        <mxPoint as="offset"/>
                    </mxGeometry>
                </mxCell>
                <mxCell id="59" value="0..6" style="text;html=1;align=center;verticalAlign=middle;resizable=0;points=[];autosize=1;strokeColor=none;fillColor=none;" parent="1" vertex="1">
                    <mxGeometry x="-905" y="565" width="40" height="30" as="geometry"/>
                </mxCell>
                <mxCell id="62" value="1" style="text;html=1;align=center;verticalAlign=middle;resizable=0;points=[];autosize=1;strokeColor=none;fillColor=none;" vertex="1" parent="1">
                    <mxGeometry x="-395" y="565" width="30" height="30" as="geometry"/>
                </mxCell>
                <mxCell id="63" value="1" style="text;html=1;align=center;verticalAlign=middle;resizable=0;points=[];autosize=1;strokeColor=none;fillColor=none;" vertex="1" parent="1">
                    <mxGeometry x="-385" y="490" width="30" height="30" as="geometry"/>
                </mxCell>
                <mxCell id="65" value="1" style="text;html=1;align=center;verticalAlign=middle;resizable=0;points=[];autosize=1;strokeColor=none;fillColor=none;" vertex="1" parent="1">
                    <mxGeometry x="-385" y="540" width="30" height="30" as="geometry"/>
                </mxCell>
            </root>
        </mxGraphModel>
    </diagram>
</mxfile>